<svg version="1.1" xmlns="http://www.w3.org/2000/svg" viewBox="0 0 845.5416666666663 1039.333333333333" width="845.5416666666663" height="1039.333333333333" class="excalidraw-svg">
  <!-- svg-source:excalidraw -->
  
  <defs>
    <style class="style-fonts">
      @font-face {
        font-family: "Virgil";
        src: url("https://excalidraw.com/Virgil.woff2");
      }
      @font-face {
        font-family: "Cascadia";
        src: url("https://excalidraw.com/Cascadia.woff2");
      }
      @font-face {
        font-family: "Assistant";
        src: url("https://excalidraw.com/Assistant-Regular.woff2");
      }
    </style>
    
  </defs>
  <rect x="0" y="0" width="845.5416666666663" height="1039.333333333333" fill="#ffffff"/><a href="obsidian://open?vault=DevBrain&amp;file=Architecture%2FSystem%20Design%2FQuestions%2FDesigning%20YouTube%20Recommendation%20Engine"><g stroke-linecap="round" transform="translate(212.99999999999937 529.333333333333) rotate(0 184.66666666666669 250)"><path d="M0 0 C100.94 -1.88, 201.04 -2.03, 369.33 0 M0 0 C119.87 1.85, 238.08 1.43, 369.33 0 M369.33 0 C367.55 135.93, 368.07 272.43, 369.33 500 M369.33 0 C371.02 134.51, 370.73 269.43, 369.33 500 M369.33 500 C294.18 498.33, 216.03 499.71, 0 500 M369.33 500 C252.15 500.23, 136.03 500.35, 0 500 M0 500 C1.56 399.32, 0.3 299.57, 0 0 M0 500 C1.98 312.81, 1.59 125.29, 0 0" stroke="#000000" stroke-width="1" fill="none"/></g><g transform="translate(223.71198527018169 758.0966666666664) rotate(0 173.95468139648438 21.236666666666665)"><text x="173.95468139648438" y="11.326462673611111" font-family="Helvetica, Segoe UI Emoji" font-size="12.311111111111112px" fill="#000000" text-anchor="middle" style="white-space: pre;" direction="ltr" dominant-baseline="alphabetic">obsidian://open?vault=DevBrain&amp;file=Architecture%2FSystem%</text><text x="173.95468139648438" y="25.48424045138889" font-family="Helvetica, Segoe UI Emoji" font-size="12.311111111111112px" fill="#000000" text-anchor="middle" style="white-space: pre;" direction="ltr" dominant-baseline="alphabetic">20Design%2FQuestions%2FDesigning%20YouTube%20Reco</text><text x="173.95468139648438" y="39.642018229166666" font-family="Helvetica, Segoe UI Emoji" font-size="12.311111111111112px" fill="#000000" text-anchor="middle" style="white-space: pre;" direction="ltr" dominant-baseline="alphabetic">mmendation%20Engine</text></g><g stroke-linecap="round" transform="translate(212.99999999999937 529.333333333333) rotate(0 184.66666666666669 250) scale(1, 1)"><foreignObject style="width: 369.333px; height: 500px; border: none;"><div xmlns="http://www.w3.org/1999/xhtml" style="width: 100%; height: 100%;"><iframe xmlns="http://www.w3.org/1999/xhtml" src="obsidian://open?vault=DevBrain&amp;file=Architecture%2FSystem%20Design%2FQuestions%2FDesigning%20YouTube%20Recommendation%20Engine" allowfullscreen="" style="width: 100%; height: 100%; border: none; border-radius: 0px; top: 0px; left: 0px;"></iframe></div></foreignObject></g></a><a href="obsidian://open?vault=DevBrain&amp;file=Architecture%2FSystem%20Design%2FQuestions%2FDesigning%20YouTube%20Recommendation%20Engine"><g stroke-linecap="round" transform="translate(10 10) rotate(0 154.66666666666674 106.8333333333332)"><path d="M0 0 C81.89 1.23, 163.83 0.25, 309.33 0 M0 0 C95.47 -0.89, 192.01 -0.67, 309.33 0 M309.33 0 C309.74 68.42, 308.87 133.98, 309.33 213.67 M309.33 0 C307.15 78.28, 308.5 156.7, 309.33 213.67 M309.33 213.67 C194.57 213.57, 76.61 213.67, 0 213.67 M309.33 213.67 C245.06 215.44, 181.7 215.39, 0 213.67 M0 213.67 C0.96 153.73, -0.69 90.14, 0 0 M0 213.67 C0.44 159.91, -0.76 107.7, 0 0" stroke="#000000" stroke-width="1" fill="none"/></g><g transform="translate(21.091807047526117 99.04666666666662) rotate(0 143.57485961914062 17.78666666666669)"><text x="143.57485961914062" y="9.486423611111114" font-family="Helvetica, Segoe UI Emoji" font-size="10.311111111111115px" fill="#000000" text-anchor="middle" style="white-space: pre;" direction="ltr" dominant-baseline="alphabetic">obsidian://open?vault=DevBrain&amp;file=Architecture%2FSystem</text><text x="143.57485961914062" y="21.344201388888898" font-family="Helvetica, Segoe UI Emoji" font-size="10.311111111111115px" fill="#000000" text-anchor="middle" style="white-space: pre;" direction="ltr" dominant-baseline="alphabetic">%20Design%2FQuestions%2FDesigning%20YouTube%20Rec</text><text x="143.57485961914062" y="33.201979166666675" font-family="Helvetica, Segoe UI Emoji" font-size="10.311111111111115px" fill="#000000" text-anchor="middle" style="white-space: pre;" direction="ltr" dominant-baseline="alphabetic">ommendation%20Engine</text></g><g stroke-linecap="round" transform="translate(10 10) rotate(0 154.66666666666674 106.8333333333332) scale(1, 1)"><foreignObject style="width: 309.333px; height: 213.667px; border: none;"><div xmlns="http://www.w3.org/1999/xhtml" style="width: 100%; height: 100%;"><iframe xmlns="http://www.w3.org/1999/xhtml" src="obsidian://open?vault=DevBrain&amp;file=Architecture%2FSystem%20Design%2FQuestions%2FDesigning%20YouTube%20Recommendation%20Engine" allowfullscreen="" style="width: 100%; height: 100%; border: none; border-radius: 0px; top: 0px; left: 0px;"></iframe></div></foreignObject></g></a><a href="obsidian://open?vault=DevBrain&amp;file=Architecture%2FSystem%20Design%2FQuestions%2FDesigning%20YouTube%20Recommendation%20Engine"><g stroke-linecap="round" transform="translate(508.8749999999997 10.414062499999886) rotate(0 163.33333333333331 103.33333333333337)"><path d="M0 0 C71.07 -1.98, 139.54 -1, 326.67 0 M0 0 C112.88 1.96, 227.24 2.78, 326.67 0 M326.67 0 C328.23 44.27, 326.91 85.47, 326.67 206.67 M326.67 0 C325.66 74.46, 327.21 148.3, 326.67 206.67 M326.67 206.67 C240.76 203.7, 154.62 205.76, 0 206.67 M326.67 206.67 C202.79 204.38, 80.15 205.34, 0 206.67 M0 206.67 C2.88 134.75, 0.1 64.77, 0 0 M0 206.67 C0.33 144.4, 0.92 82.43, 0 0" stroke="#000000" stroke-width="1" fill="none"/></g><g transform="translate(520.5719655354815 94.96406249999995) rotate(0 151.63636779785156 18.78333333333336)"><text x="151.63636779785156" y="10.017990451388886" font-family="Helvetica, Segoe UI Emoji" font-size="10.888888888888888px" fill="#000000" text-anchor="middle" style="white-space: pre;" direction="ltr" dominant-baseline="alphabetic">obsidian://open?vault=DevBrain&amp;file=Architecture%2FSystem</text><text x="151.63636779785156" y="22.54021267361111" font-family="Helvetica, Segoe UI Emoji" font-size="10.888888888888888px" fill="#000000" text-anchor="middle" style="white-space: pre;" direction="ltr" dominant-baseline="alphabetic">%20Design%2FQuestions%2FDesigning%20YouTube%20Rec</text><text x="151.63636779785156" y="35.06243489583333" font-family="Helvetica, Segoe UI Emoji" font-size="10.888888888888888px" fill="#000000" text-anchor="middle" style="white-space: pre;" direction="ltr" dominant-baseline="alphabetic">ommendation%20Engine</text></g><g stroke-linecap="round" transform="translate(508.8749999999997 10.414062499999886) rotate(0 163.33333333333331 103.33333333333337) scale(1, 1)"><foreignObject style="width: 326.667px; height: 206.667px; border: none;"><div xmlns="http://www.w3.org/1999/xhtml" style="width: 100%; height: 100%;"><iframe xmlns="http://www.w3.org/1999/xhtml" src="obsidian://open?vault=DevBrain&amp;file=Architecture%2FSystem%20Design%2FQuestions%2FDesigning%20YouTube%20Recommendation%20Engine" allowfullscreen="" style="width: 100%; height: 100%; border: none; border-radius: 0px; top: 0px; left: 0px;"></iframe></div></foreignObject></g></a></svg>